<?xml version="1.0" standalone="no"?><!DOCTYPE svg PUBLIC "-//W3C//DTD SVG 1.1//EN" "http://www.w3.org/Graphics/SVG/1.1/DTD/svg11.dtd"><svg t="1700703719707" class="icon" viewBox="0 0 1024 1024" version="1.1" xmlns="http://www.w3.org/2000/svg" p-id="3200" xmlns:xlink="http://www.w3.org/1999/xlink" width="16" height="16"><path d="M862.72 264.64L510.826667 71.893333c-9.28-5.013333-20.48-7.68-30.826667-7.893333h-1.066667c-10.24 0.213333-20.48 2.773333-29.76 7.893333L97.28 264.64C76.8 275.84 64 297.386667 64 320.853333v379.733334c0 23.36 12.8 45.013333 33.28 56.213333l351.893333 192.746667c9.6 5.226667 20.16 7.893333 30.826667 7.893333s21.226667-2.666667 30.826667-7.893333l351.893333-192.746667C883.2 745.6 896 724.053333 896 700.586667v-379.733334c0-23.466667-12.8-45.013333-33.28-56.213333zM448 875.946667L128 700.586667V350.933333l320 151.893334v373.12z m32.213333-428.586667L167.786667 298.986667l311.68-170.666667 312.853333 170.773333-312.106667 148.266667zM832 700.693333L512 875.946667V503.146667l320-151.893334v349.44z" p-id="3201" fill="#00a1b8"></path></svg>